HIERARCHY
ROOT Hips
{
	OFFSET 0.000000 0.000000 0.000000
	CHANNELS 6 Xposition Yposition Zposition Xrotation Yrotation Zrotation
	JOINT LeftUpLeg_virtual
	{
		OFFSET 0.000000 0.000000 0.000000
		CHANNELS 3 Xrotation Yrotation Zrotation
		JOINT LeftUpLeg
		{
			OFFSET 11.394100 -6.187798 -0.413800
			CHANNELS 3 Xrotation Yrotation Zrotation
			JOINT LeftLeg
			{
				OFFSET 0.430247 -32.302673 3.732800
				CHANNELS 3 Xrotation Yrotation Zrotation
				JOINT LeftFoot
				{
					OFFSET -0.430247 -48.264931 -6.423300
					CHANNELS 3 Xrotation Yrotation Zrotation
					JOINT LeftToeBase
					{
						OFFSET 4.230900 -16.068199 23.438400
						CHANNELS 3 Xrotation Yrotation Zrotation
						JOINT LeftToe_End
						{
							OFFSET 4.510700 0.695400 19.974600
							CHANNELS 3 Xrotation Yrotation Zrotation
							End Site
							{
								OFFSET 0 0 0
							}
						}
					}
				}
			}
		}
	}
	JOINT RightUpLeg_virtual
	{
		OFFSET 0.000000 0.000000 0.000000
		CHANNELS 3 Xrotation Yrotation Zrotation
		JOINT RightUpLeg
		{
			OFFSET -11.333700 -6.187798 -0.413800
			CHANNELS 3 Xrotation Yrotation Zrotation
			JOINT RightLeg
			{
				OFFSET -0.430392 -32.302628 3.733000
				CHANNELS 3 Xrotation Yrotation Zrotation
				JOINT RightFoot
				{
					OFFSET 0.430392 -48.264973 -6.423500
					CHANNELS 3 Xrotation Yrotation Zrotation
					JOINT RightToeBase
					{
						OFFSET -4.230900 -16.068199 23.438400
						CHANNELS 3 Xrotation Yrotation Zrotation
						JOINT RightToe_End
						{
							OFFSET -4.510700 0.695400 19.974600
							CHANNELS 3 Xrotation Yrotation Zrotation
							End Site
							{
								OFFSET 0 0 0
							}
						}
					}
				}
			}
		}
	}
	JOINT Spine_virtual
	{
		OFFSET 0.000000 0.000000 0.000000
		CHANNELS 3 Xrotation Yrotation Zrotation
		JOINT Spine
		{
			OFFSET -0.002400 12.777504 0.315300
			CHANNELS 3 Xrotation Yrotation Zrotation
			JOINT Spine1
			{
				OFFSET -0.002067 5.816869 0.032633
				CHANNELS 3 Xrotation Yrotation Zrotation
				JOINT Spine1_split
				{
					OFFSET -0.002067 5.816869 0.032633
					CHANNELS 3 Xrotation Yrotation Zrotation
					JOINT Spine2
					{
						OFFSET -0.002067 5.816869 0.032633
						CHANNELS 3 Xrotation Yrotation Zrotation
						JOINT Neck_virtual
						{
							OFFSET 0.000000 0.000000 0.000000
							CHANNELS 3 Xrotation Yrotation Zrotation
							JOINT Neck
							{
								OFFSET -0.003700 21.199493 -0.826900
								CHANNELS 3 Xrotation Yrotation Zrotation
								JOINT Head
								{
									OFFSET 0.000000 20.442200 4.834800
									CHANNELS 3 Xrotation Yrotation Zrotation
									JOINT HeadTop_End
									{
										OFFSET 0.000000 34.668396 4.968400
										CHANNELS 3 Xrotation Yrotation Zrotation
										End Site
										{
											OFFSET 0 0 0
										}
									}
								}
							}
						}
						JOINT LeftShoulder_virtual
						{
							OFFSET 0.000000 0.000000 0.000000
							CHANNELS 3 Xrotation Yrotation Zrotation
							JOINT LeftShoulder
							{
								OFFSET 3.288150 8.794197 -1.372250
								CHANNELS 3 Xrotation Yrotation Zrotation
								JOINT LeftShoulder_split
								{
									OFFSET 3.288150 8.794197 -1.372250
									CHANNELS 3 Xrotation Yrotation Zrotation
									JOINT LeftArm
									{
										OFFSET 11.953299 -2.279007 -0.146200
										CHANNELS 3 Xrotation Yrotation Zrotation
										JOINT LeftForeArm
										{
											OFFSET 18.448900 0.000000 0.000000
											CHANNELS 3 Xrotation Yrotation Zrotation
											JOINT LeftHand
											{
												OFFSET 29.527798 0.000000 0.000000
												CHANNELS 3 Xrotation Yrotation Zrotation
												End Site
												{
													OFFSET 0 0 0
												}
											}
										}
									}
								}
							}
						}
						JOINT RightShoulder_virtual
						{
							OFFSET 0.000000 0.000000 0.000000
							CHANNELS 3 Xrotation Yrotation Zrotation
							JOINT RightShoulder
							{
								OFFSET -3.249400 8.794197 -1.372250
								CHANNELS 3 Xrotation Yrotation Zrotation
								JOINT RightShoulder_split
								{
									OFFSET -3.249400 8.794197 -1.372250
									CHANNELS 3 Xrotation Yrotation Zrotation
									JOINT RightArm
									{
										OFFSET -11.953299 -2.279007 -0.146200
										CHANNELS 3 Xrotation Yrotation Zrotation
										JOINT RightForeArm
										{
											OFFSET -18.448900 0.000000 0.000000
											CHANNELS 3 Xrotation Yrotation Zrotation
											JOINT RightHand
											{
												OFFSET -29.527802 0.000000 0.000000
												CHANNELS 3 Xrotation Yrotation Zrotation
												End Site
												{
													OFFSET 0 0 0
												}
											}
										}
									}
								}
							}
						}
					}
				}
			}
		}
	}
}
MOTION
Frames: 11
Frame Time: 0.03333333
-1.549014 95.642982 -1.923523 0.000000 0.000000 0.000000 -6.559126 -24.992927 1.915108 -18.284408 11.390707 10.949178 28.872613 10.622111 1.547116 0.365061 18.030123 -12.054956 -0.851734 0.095754 -0.207300 0.000000 0.000000 0.000000 -5.904184 -23.998819 2.147450 -17.416050 -33.184023 -16.464140 33.369162 5.698104 -7.138352 -14.269838 -19.048843 6.510152 -6.431547 0.632909 -1.983629 0.000000 0.000000 0.000000 -6.997662 -26.622635 1.058865 5.375737 -2.653293 -1.404441 1.358395 -2.777312 0.398996 0.809975 0.702889 0.056668 0.000000 0.000000 0.000000 1.040986 -2.409988 0.271718 2.002083 5.362670 -0.377962 0.064127 -19.020554 -3.557104 0.000000 0.000000 0.000000 1.473960 -2.562649 0.074352 -0.071765 -16.047599 -18.623464 -1.886897 -1.846570 -1.798553 16.182381 7.329426 -35.604472 171.065653 -82.376637 170.150230 0.000000 0.000000 0.000000 0.947009 -2.479755 0.302192 0.835959 15.209173 11.464358 2.764906 2.572525 0.163143 3.315292 28.071463 43.206042 -172.235746 83.635666 171.811646 0.000000 0.000000 0.000000 
-2.407244 95.725693 -1.702736 0.000000 0.000000 0.000000 -6.587248 -26.635258 1.586952 -18.085269 11.070890 11.450189 29.721404 11.193565 1.596638 0.022145 18.889834 -11.412800 -1.022602 0.156484 -0.769464 0.000000 0.000000 0.000000 -5.998690 -25.541689 1.815259 -16.013406 -33.152447 -15.384093 32.095803 6.022874 -7.001337 -14.955823 -18.617006 6.219860 -6.300752 0.560667 -1.792857 0.000000 0.000000 0.000000 -7.096141 -28.006243 0.771689 5.378537 -2.562307 -1.250839 1.344051 -2.654725 0.374350 0.770344 0.732839 0.059950 0.000000 0.000000 0.000000 1.020815 -2.299857 0.238799 1.952959 5.393108 -0.341763 0.100389 -19.053716 -3.264368 0.000000 0.000000 0.000000 1.437686 -2.446231 0.059409 -0.081230 -16.067339 -18.527730 -1.855563 -1.843128 -1.911491 15.395205 7.019604 -35.771070 171.030928 -82.800799 170.108306 0.000000 0.000000 0.000000 0.922840 -2.371831 0.257038 0.804869 15.253885 11.392499 2.847969 2.580140 0.192337 3.810583 27.387039 42.461439 -173.168136 82.854081 172.736823 0.000000 0.000000 0.000000 
-3.151472 95.815796 -1.496677 0.000000 0.000000 0.000000 -6.666170 -28.341259 1.274255 -18.134929 10.796101 11.800858 30.630991 11.564964 1.581737 -0.386504 19.347766 -10.619794 -1.311766 0.250356 -1.341153 0.000000 0.000000 0.000000 -6.148683 -27.106840 1.498115 -14.574384 -32.932314 -14.379833 30.954967 6.100695 -6.846206 -15.591843 -18.131302 5.905156 -5.982874 0.451686 -1.543534 0.000000 0.000000 0.000000 -7.192200 -29.338873 0.515504 5.379134 -2.403691 -1.134384 1.314975 -2.514157 0.342046 0.732522 0.703469 0.047781 0.000000 0.000000 0.000000 1.019851 -2.166809 0.199849 1.908771 5.426514 -0.340404 0.081397 -18.926463 -3.026533 0.000000 0.000000 0.000000 1.393596 -2.307583 0.033893 -0.093554 -16.104411 -18.432179 -1.816057 -1.834683 -2.024861 14.627979 6.688123 -35.914511 171.161986 -83.201908 170.232739 0.000000 0.000000 0.000000 0.891243 -2.244048 0.209421 0.782666 15.324318 11.356865 2.870831 2.584536 0.193248 4.357050 26.553624 41.789201 -173.970942 82.027177 173.545148 0.000000 0.000000 0.000000 
-3.773741 95.932144 -1.305771 0.000000 0.000000 0.000000 -6.782303 -30.083548 0.986275 -18.519095 10.611907 11.975137 31.458260 11.626573 1.493291 -0.622516 19.181888 -9.835458 -1.717042 0.347337 -1.808135 0.000000 0.000000 0.000000 -6.310764 -28.673523 1.211548 -13.276848 -32.578889 -13.536155 29.982768 5.957840 -6.693621 -16.001762 -17.584103 5.687031 -5.672378 0.335431 -1.289994 0.000000 0.000000 0.000000 -7.276825 -30.638453 0.305831 5.386912 -2.183261 -1.057075 1.277677 -2.366679 0.305720 0.700604 0.620769 0.013342 0.000000 0.000000 0.000000 1.039101 -2.019333 0.158774 1.864432 5.461701 -0.363259 0.013793 -18.637962 -2.842229 0.000000 0.000000 0.000000 1.345639 -2.156746 0.000369 -0.104789 -16.142433 -18.345482 -1.759538 -1.803776 -2.126297 13.924417 6.348076 -36.033886 171.447228 -83.545904 170.514074 0.000000 0.000000 0.000000 0.857736 -2.105480 0.164070 0.770742 15.399438 11.345903 2.845527 2.571632 0.173106 4.922373 25.670656 41.195743 -174.666242 81.158084 174.258166 0.000000 0.000000 0.000000 
-4.273741 96.104454 -1.144989 0.000000 0.000000 0.000000 -6.882778 -31.763241 0.745460 -19.233166 10.561391 11.929136 32.083854 11.335299 1.343635 -0.583274 18.270625 -9.096339 -2.152277 0.421362 -2.103218 0.000000 0.000000 0.000000 -6.442305 -30.210518 0.974346 -12.170652 -32.110488 -12.846991 29.164723 5.642436 -6.558349 -16.109216 -16.945368 5.591852 -5.414291 0.239914 -1.050778 0.000000 0.000000 0.000000 -7.316334 -31.913704 0.134613 5.393550 -1.906794 -1.013578 1.238673 -2.216682 0.270984 0.682100 0.507960 -0.010527 0.000000 0.000000 0.000000 1.074679 -1.866307 0.118638 1.824079 5.501883 -0.396670 -0.080846 -18.207766 -2.689532 0.000000 0.000000 0.000000 1.305619 -2.000361 -0.035754 -0.111869 -16.157893 -18.276415 -1.701585 -1.762608 -2.224111 13.318780 6.001363 -36.125963 171.833462 -83.807958 170.903928 0.000000 0.000000 0.000000 0.822034 -1.964624 0.123575 0.767356 15.459957 11.351976 2.790791 2.537895 0.138443 5.462663 24.832010 40.694141 -175.243994 80.297890 174.870697 0.000000 0.000000 0.000000 
-4.675153 96.340866 -0.987877 0.000000 0.000000 0.000000 -6.935154 -33.357397 0.550251 -20.153631 10.665200 11.646485 32.357000 10.713909 1.160904 -0.280920 16.600741 -8.420422 -2.524236 0.451107 -2.170136 0.000000 0.000000 0.000000 -6.491414 -31.691658 0.795137 -11.239874 -31.515326 -12.258629 28.398484 5.161656 -6.460554 -16.002631 -16.207098 5.538106 -5.186811 0.167688 -0.810663 0.000000 0.000000 0.000000 -7.315513 -33.179959 -0.015545 5.396900 -1.583573 -0.991538 1.202853 -2.067241 0.239939 0.677714 0.393335 -0.028173 0.000000 0.000000 0.000000 1.121302 -1.712234 0.079712 1.780828 5.533885 -0.423556 -0.172695 -17.670630 -2.539810 0.000000 0.000000 0.000000 1.276227 -1.843575 -0.071074 -0.113489 -16.140193 -18.231547 -1.632124 -1.720045 -2.297335 12.824724 5.634754 -36.191062 172.189260 -83.977545 171.274356 0.000000 0.000000 0.000000 0.788540 -1.824214 0.090713 0.772500 15.490608 11.370993 2.717401 2.492614 0.082917 5.927755 24.102887 40.288277 -175.692929 79.523660 175.371227 0.000000 0.000000 0.000000 
-5.008697 96.633186 -0.819546 0.000000 0.000000 0.000000 -6.882698 -34.824662 0.423954 -21.077964 10.880092 11.132580 32.116922 9.834093 0.988387 0.205779 14.249693 -7.787540 -2.862933 0.422053 -1.995429 0.000000 0.000000 0.000000 -6.432708 -33.088483 0.683411 -10.403807 -30.784397 -11.715374 27.621604 4.508684 -6.396773 -15.716583 -15.399753 5.453298 -4.991479 0.115889 -0.564348 0.000000 0.000000 0.000000 -7.246167 -34.437766 -0.139432 5.382783 -1.225760 -0.986114 1.177356 -1.914805 0.209565 0.671143 0.279922 -0.014279 0.000000 0.000000 0.000000 1.169044 -1.557108 0.040192 1.730540 5.547388 -0.430825 -0.238169 -17.072686 -2.368022 0.000000 0.000000 0.000000 1.258858 -1.685837 -0.108474 -0.112597 -16.090937 -18.215027 -1.561039 -1.684500 -2.354076 12.433448 5.238195 -36.232644 172.373115 -84.080762 171.488701 0.000000 0.000000 0.000000 0.766513 -1.680410 0.061739 0.786906 15.491619 11.398578 2.648624 2.415605 0.022210 6.283444 23.519241 39.972664 -176.029425 78.914080 175.771066 0.000000 0.000000 0.000000 
-5.294807 96.965340 -0.673767 0.000000 0.000000 0.000000 -6.724524 -36.159486 0.365524 -21.811603 11.124970 10.428749 31.296453 8.720384 0.853489 0.887850 11.389897 -7.311183 -3.233458 0.340059 -1.565454 0.000000 0.000000 0.000000 -6.282123 -34.400862 0.635493 -9.605629 -29.918851 -11.202504 26.791926 3.713824 -6.359917 -15.235193 -14.534144 5.354228 -4.847236 0.083901 -0.336399 0.000000 0.000000 0.000000 -7.110243 -35.651094 -0.244633 5.350346 -0.849030 -0.992286 1.161941 -1.758143 0.178431 0.659483 0.181463 0.012885 0.000000 0.000000 0.000000 1.208708 -1.399329 -0.001481 1.665766 5.540926 -0.414830 -0.261820 -16.450779 -2.161589 0.000000 0.000000 0.000000 1.250319 -1.525846 -0.149240 -0.112515 -16.018610 -18.226262 -1.502814 -1.658011 -2.399472 12.131398 4.797279 -36.253698 172.269378 -84.161823 171.431724 0.000000 0.000000 0.000000 0.752885 -1.530053 0.031452 0.807332 15.465978 11.431904 2.582046 2.311490 -0.045577 6.506060 23.087245 39.744017 -176.261829 78.514322 176.073439 0.000000 0.000000 0.000000 
-5.545554 97.310196 -0.516132 0.000000 0.000000 0.000000 -6.476228 -37.355473 0.363460 -22.194194 11.304928 9.612668 29.938003 7.481432 0.750919 1.750761 8.285289 -6.987969 -3.585920 0.212517 -0.982538 0.000000 0.000000 0.000000 -6.074067 -35.603030 0.631518 -8.811294 -28.928259 -10.728509 25.909896 2.840911 -6.346655 -14.582341 -13.620579 5.306692 -4.732718 0.073075 -0.148211 0.000000 0.000000 0.000000 -6.912392 -36.765276 -0.318479 5.304940 -0.472635 -1.015326 1.156262 -1.598096 0.144053 0.650462 0.104829 0.037590 0.000000 0.000000 0.000000 1.233889 -1.238695 -0.046365 1.577308 5.510169 -0.381289 -0.229279 -15.838486 -1.919383 0.000000 0.000000 0.000000 1.244609 -1.364274 -0.193670 -0.115863 -15.941446 -18.256850 -1.461935 -1.639169 -2.434157 11.896665 4.313760 -36.254982 171.859471 -84.267315 171.083780 0.000000 0.000000 0.000000 0.751687 -1.371119 -0.002795 0.829962 15.418011 11.461496 2.518657 2.180761 -0.107997 6.604810 22.785865 39.588026 -176.428936 78.311534 176.308206 0.000000 0.000000 0.000000 
-5.742989 97.635941 -0.404701 0.000000 0.000000 0.000000 -6.195749 -38.407950 0.392785 -22.177395 11.406466 8.775191 28.159512 6.291462 0.657444 2.722197 5.289751 -6.741212 -3.764558 0.080878 -0.401428 0.000000 0.000000 0.000000 -5.854809 -36.685048 0.643276 -7.970514 -27.839994 -10.296268 24.941105 1.934154 -6.349313 -13.839680 -12.675027 5.325834 -4.617959 0.087617 -0.020080 0.000000 0.000000 0.000000 -6.692028 -37.775253 -0.373872 5.256816 -0.114692 -1.054256 1.160469 -1.439294 0.108129 0.663125 0.036401 0.076950 0.000000 0.000000 0.000000 1.242034 -1.077865 -0.091100 1.467416 5.466290 -0.334988 -0.124439 -15.248927 -1.646486 0.000000 0.000000 0.000000 1.239828 -1.203546 -0.239349 -0.122519 -15.869692 -18.297035 -1.440159 -1.620042 -2.469948 11.724035 3.796060 -36.242879 171.206287 -84.421739 170.503119 0.000000 0.000000 0.000000 0.759401 -1.207600 -0.041219 0.848306 15.354386 11.486450 2.452297 2.034917 -0.166216 6.613297 22.584955 39.489913 -176.545118 78.257090 176.485395 0.000000 0.000000 0.000000 
-5.896139 97.917770 -0.300381 0.000000 0.000000 0.000000 -5.958948 -39.325743 0.405296 -21.743142 11.398372 8.001929 26.131976 5.390915 0.556263 3.641650 2.766091 -6.430746 -3.614867 -0.020498 -0.001132 0.000000 0.000000 0.000000 -5.648683 -37.605690 0.646580 -7.064105 -26.696346 -9.910234 23.901084 1.001954 -6.364721 -13.137080 -11.735526 5.337186 -4.461199 0.128477 0.045415 0.000000 0.000000 0.000000 -6.500148 -38.650312 -0.426436 5.212378 0.208085 -1.110151 1.170151 -1.285159 0.074481 0.686326 -0.010715 0.105266 0.000000 0.000000 0.000000 1.234795 -0.920860 -0.133782 1.342366 5.411462 -0.284568 0.069124 -14.689737 -1.351356 0.000000 0.000000 0.000000 1.232491 -1.046705 -0.281168 -0.132391 -15.815870 -18.343434 -1.428469 -1.601260 -2.512245 11.607797 3.258779 -36.218659 170.449051 -84.630743 169.822149 0.000000 0.000000 0.000000 0.764789 -1.045927 -0.079925 0.859370 15.275733 11.497726 2.383551 1.882441 -0.202477 6.592919 22.444241 39.432598 -176.631547 78.288557 176.625099 0.000000 0.000000 0.000000 
